<svg id="Layer_1" data-name="Layer 1" xmlns="http://www.w3.org/2000/svg" width="22" height="22" viewBox="0 0 22 22"><title>Artboard 1</title><path d="M0,0V22H22V0ZM16.033,13.788l-1.578,1.755a.986.986,0,0,1-.682.293,1.7,1.7,0,0,1-.5-.047c-2.357-.5-7.576-5.207-8.32-7.5a1.138,1.138,0,0,1,.121-1.2L6.654,5.332A.486.486,0,0,1,7.331,5.3L10.1,7.76a.488.488,0,0,1,.036.7L8.925,9.806a6.444,6.444,0,0,0,2.446,2.205l1.214-1.35a.486.486,0,0,1,.677-.035L16,13.11a.47.47,0,0,1,.165.34A.493.493,0,0,1,16.033,13.788Z" style="fill:#fff"/></svg>