<svg id="Layer_1" data-name="Layer 1" xmlns="http://www.w3.org/2000/svg" width="22" height="22" viewBox="0 0 22 22"><title>Artboard 1</title><path d="M0,0V22H22V0ZM16.462,7.784a5.065,5.065,0,0,1-.538.6c-.43.427-.453.474-.453.831a8.011,8.011,0,0,1-.523,2.33,6.754,6.754,0,0,1-2.559,3.014,6.483,6.483,0,0,1-5.04.575,5.867,5.867,0,0,1-1.483-.683,2.259,2.259,0,0,1,.63-.062,4.308,4.308,0,0,0,2.059-.575l.415-.249L8.495,13.4a2.324,2.324,0,0,1-1.437-1.274c-.046-.164-.031-.171.4-.171l.445-.008-.376-.179a2.482,2.482,0,0,1-1.053-.994A2.791,2.791,0,0,1,6.2,9.733a.914.914,0,0,1,.361.085c.53.194.6.148.292-.179a2.245,2.245,0,0,1-.476-2.3l.13-.373.507.5a6.244,6.244,0,0,0,3.657,1.8l.384.047-.023-.381a2.224,2.224,0,0,1,1.5-2.237,2.625,2.625,0,0,1,1.345-.031,3.121,3.121,0,0,1,.653.342l.377.257.415-.132a4.247,4.247,0,0,0,.676-.264c.131-.07.246-.109.246-.085a2.264,2.264,0,0,1-.522.831c-.323.349-.231.381.422.147C16.531,7.636,16.539,7.636,16.462,7.784Z" style="fill:#fff"/></svg>